HIERARCHY
ROOT Bip001_Pelvis
{
  OFFSET 34.4345 95.6767 -26.8758
  CHANNELS 6 Xposition Yposition Zposition Zrotation Xrotation Yrotation
  JOINT Bip001_Spine
  {
    OFFSET 1.4188e-005 10.2191 -0.0116013
    CHANNELS 3 Zrotation Xrotation Yrotation
    JOINT Bip001_L_Thigh
    {
      OFFSET 11.0458 -10.2192 0.0116197
      CHANNELS 3 Zrotation Xrotation Yrotation
      JOINT Bip001_L_Calf
      {
        OFFSET -0.707118 -44.0221 0.360014
        CHANNELS 3 Zrotation Xrotation Yrotation
        JOINT Bip001_L_Foot
        {
          OFFSET -0.651902 -40.5938 -3.56146
          CHANNELS 3 Zrotation Xrotation Yrotation
          JOINT Bip001_L_Toe0
          {
            OFFSET 0.0530839 -10.2181 13.1504
            CHANNELS 3 Zrotation Xrotation Yrotation
            End Site
            {
              OFFSET -1.02532e-005 0 7.55606
            }
          }
        }
      }
    }
    JOINT Bip001_R_Thigh
    {
      OFFSET -11.0458 -10.2191 0.0115893
      CHANNELS 3 Zrotation Xrotation Yrotation
      JOINT Bip001_R_Calf
      {
        OFFSET 0.706994 -44.0221 0.35984
        CHANNELS 3 Zrotation Xrotation Yrotation
        JOINT Bip001_R_Foot
        {
          OFFSET 0.651786 -40.5938 -3.5613
          CHANNELS 3 Zrotation Xrotation Yrotation
          JOINT Bip001_R_Toe0
          {
            OFFSET -0.0531479 -10.2181 13.1504
            CHANNELS 3 Zrotation Xrotation Yrotation
            End Site
            {
              OFFSET -1.02894e-005 0 7.55606
            }
          }
        }
      }
    }
    JOINT Bip001_Spine1
    {
      OFFSET 1.87041e-005 14.5736 1.08638
      CHANNELS 3 Zrotation Xrotation Yrotation
      JOINT Bip001_Spine2
      {
        OFFSET 2.24614e-005 14.5058 -1.69078
        CHANNELS 3 Zrotation Xrotation Yrotation
        JOINT Bip001_Neck
        {
          OFFSET 2.20278e-005 15.3945 -0.489414
          CHANNELS 3 Zrotation Xrotation Yrotation
          JOINT Bip001_L_Clavicle
          {
            OFFSET 6.06036 -0.000579998 0.00836775
            CHANNELS 3 Zrotation Xrotation Yrotation
            JOINT Bip001_L_UpperArm
            {
              OFFSET 11.5509 -0.0600302 0.00193952
              CHANNELS 3 Zrotation Xrotation Yrotation
              JOINT Bip001_L_Forearm
              {
                OFFSET 25.9523 0.0806089 -2.15551
                CHANNELS 3 Zrotation Xrotation Yrotation
                JOINT Bip001_L_Hand
                {
                  OFFSET 32.2475 0.153767 1.63968
                  CHANNELS 3 Zrotation Xrotation Yrotation
                  JOINT Bip001_L_Finger0
                  {
                    OFFSET 6.04639 -2.20976 5.90322
                    CHANNELS 3 Zrotation Xrotation Yrotation
                    End Site
                    {
                      OFFSET 4.22375 -1.43895 0.606485
                    }
                  }
                  JOINT Bip001_L_Finger1
                  {
                    OFFSET 11.0826 -0.704819 -0.198153
                    CHANNELS 3 Zrotation Xrotation Yrotation
                    End Site
                    {
                      OFFSET 6.20027 -0.397518 -0.0787166
                    }
                  }
                }
              }
            }
          }
          JOINT Bip001_R_Clavicle
          {
            OFFSET -6.06037 -0.000563197 0.00835105
            CHANNELS 3 Zrotation Xrotation Yrotation
            JOINT Bip001_R_UpperArm
            {
              OFFSET -11.5509 -0.0599978 0.00190698
              CHANNELS 3 Zrotation Xrotation Yrotation
              JOINT Bip001_R_Forearm
              {
                OFFSET -25.9523 0.0806822 -2.15589
                CHANNELS 3 Zrotation Xrotation Yrotation
                JOINT Bip001_R_Hand
                {
                  OFFSET -32.2475 0.153859 1.63989
                  CHANNELS 3 Zrotation Xrotation Yrotation
                  JOINT Bip001_R_Finger0
                  {
                    OFFSET -6.04641 -2.20976 5.90317
                    CHANNELS 3 Zrotation Xrotation Yrotation
                    End Site
                    {
                      OFFSET -4.22376 -1.43895 0.60647
                    }
                  }
                  JOINT Bip001_R_Finger1
                  {
                    OFFSET -11.0826 -0.704794 -0.198182
                    CHANNELS 3 Zrotation Xrotation Yrotation
                    End Site
                    {
                      OFFSET -6.20028 -0.397504 -0.0787333
                    }
                  }
                }
              }
            }
          }
          JOINT Bip001_Head
          {
            OFFSET 1.09673e-005 11.2744 2.05948
            CHANNELS 3 Zrotation Xrotation Yrotation
            End Site
            {
              OFFSET 2.89576e-005 20.8808 -2.77728e-005
            }
          }
        }
      }
    }
  }
}
MOTION
Frames:	12
Frame Time:	0.04
32.88 95.6104 -27.9506 -4.05955 0.5906 4.90932 -0.0120447 1.3314 0.196586 12.5093 -7.96133 11.4212 -3.03713 16.057 -11.4998 1.58514 -8.63993 0.082738 0.684886 -3.89135 -0.40228 1.70636 0.474289 -6.73195 -2.13087 3.18893 0.515793 -6.46298 -4.81682 -0.794077 2.73705 -9.62969 3.61189 -0.0339751 2.66277 0.394623 -0.0319443 2.66275 0.394389 -1.83622 -13.6263 -2.87553 -19.8039 15.1916 -1.33364 -56.2343 41.0233 9.80364 16.8582 2.34311 -26.4517 7.47152 0.153299 -7.07567 -8.82781e-031 6.36111e-015 7.95139e-015 -3.18055e-015 3.18056e-015 6.36111e-015 5.56498 18.1244 32.5182 24.0599 -53.6248 39.6629 -42.5251 0.935696 57.939 -20.33 -6.46945 6.1931 1.76556e-031 6.36111e-015 -1.59028e-015 1.32417e-031 4.77083e-015 -1.59028e-015 5.46852 4.34473 -4.44763 
32.3851 95.6777 -28.0007 -4.5958 0.870648 7.02931 0.0410836 1.2748 0.328915 13.4798 -8.944 12.0603 -3.06193 16.1855 -13.9902 0.285178 -8.95367 0.0499539 0.165218 -3.16728 -0.0336395 2.89115 0.603911 -8.59964 -2.72203 2.44546 0.494078 -6.43704 -4.44075 -1.02856 2.71889 -9.50537 3.48983 0.0752328 2.54984 0.657116 0.0752228 2.54983 0.657124 -3.91627 -13.1463 -3.80424 -18.7769 14.3606 0.322173 -54.5504 42.1395 9.73463 16.3615 -1.98788 -28.7895 6.13334 1.02131 -5.99145 6.36111e-015 6.36111e-015 -6.36111e-015 3.18055e-015 9.54167e-015 -3.18055e-015 3.0368 16.7115 37.4469 42.3471 -57.1481 58.5724 -60.9931 10.2184 49.2087 -19.4325 -12.0492 7.00136 5.96354e-016 3.18055e-015 1.49088e-016 7.95139e-016 1.59028e-015 -9.93923e-017 7.46416 4.45817 -6.27424 
31.6961 95.6206 -27.8377 -4.80784 1.06454 10.2215 -0.126949 1.12097 0.111081 14.9296 -9.79497 11.6364 -4.61626 16.1605 -15.7316 0.68774 -8.35639 0.0481397 0.417195 -3.48805 -0.402154 4.23366 0.746964 -11.9087 -3.64807 2.38096 0.717557 -6.35588 -4.78399 -0.799584 2.69245 -9.32495 3.29858 -0.256147 2.24173 0.224731 -0.256148 2.24173 0.224732 -1.11768 -10.1769 -4.64615 -19.1141 10.3884 2.59463 -56.3823 43.2639 10.295 18.1144 -2.64981 -31.003 4.65779 1.02886 -4.75658 -9.54166e-015 3.18055e-015 3.18055e-015 -9.54166e-015 3.18056e-015 3.18055e-015 3.33085 14.62 36.3001 56.262 -62.1012 73.3653 -44.8536 5.12418 48.0115 -18.7862 -3.70095 5.57241 -7.95139e-016 -3.18055e-015 -1.98785e-016 -7.95139e-016 -6.36111e-015 -2.5842e-015 5.80903 3.45418 -6.11929 
31.5079 95.6101 -27.5969 -3.73449 0.621484 12.8774 -0.38423 1.09387 -0.184012 13.8137 -9.263 12.1211 -3.7399 14.9697 -18.3667 0.298689 -7.50852 0.0377483 0.552322 -3.28677 -0.635122 3.83041 1.10055 -13.5557 -4.02009 3.67115 0.521367 -6.64825 -5.43555 -1.17121 2.774 -9.51937 3.3145 -0.768919 2.18879 -0.361449 -0.767071 2.18874 -0.361023 1.91798 -4.34182 -5.39022 -20.7919 4.74715 -0.18553 -58.0642 40.0392 13.3032 18.2293 -2.40052 -34.1945 5.31336 1.32764 -4.15431 5.29669e-031 9.54166e-015 -3.18055e-015 5.29669e-031 9.54167e-015 -3.18055e-015 3.12744 8.81413 30.9092 30.7497 -56.7133 53.53 -42.0096 3.0746 40.0513 -17.414 -4.49016 5.00215 -5.51738e-033 -1.59028e-015 -1.98785e-016 -2.09661e-031 -3.18056e-015 -3.77691e-015 3.53799 -0.631508 -5.41004 
32.1853 95.7348 -27.5178 -1.83607 -0.317039 10.9802 -0.440714 1.38466 -0.431063 11.2995 -6.5305 11.4862 -3.22689 12.65 -15.6754 -1.38431 -7.54177 0.00538802 0.259976 -2.2127 -0.451651 1.10089 0.550387 -10.1907 -3.08869 7.02335 0.238201 -7.12154 -6.48719 -2.4709 2.80251 -9.62 3.37524 -0.870666 2.77365 -0.858998 -0.871363 2.77358 -0.855608 -2.43538 -1.63207 -2.53215 -17.1706 3.52011 -4.04851 -58.1113 38.9309 14.4778 16.7398 -1.76275 -34.1248 7.00665 0.925047 -5.85021 0 9.54166e-015 -0 3.18055e-015 1.27222e-014 -3.18055e-015 3.56568 4.55135 27.4066 17.9012 -47.4614 44.031 -35.3924 -5.35963 31.7018 -15.2813 -5.1888 4.77651 -4.41391e-032 -3.18055e-015 -7.95139e-016 -3.18055e-015 -1.59028e-015 -0 6.64472 -2.14437 -4.46461 
32.8561 95.746 -27.5019 -2.09518 -0.381761 6.04041 -0.144688 1.52171 -0.214117 10.6656 -5.64064 10.6679 -3.00553 13.3069 -10.6165 -2.33565 -9.24287 -0.0146472 -0.514821 -1.35446 0.352074 -0.103431 -0.380131 -5.36779 -1.87658 7.70758 -0.101098 -7.02549 -6.31828 -2.49644 2.67671 -9.34583 3.38853 -0.307419 3.04489 -0.416989 -0.270115 3.04491 -0.420113 -4.99442 -2.13771 -0.24581 -14.9838 4.41523 -4.81254 -56.9413 41.8461 11.0394 17.3602 2.15483 -29.3486 4.87925 0.740395 -8.0677 3.18055e-015 -3.18055e-015 4.77083e-015 3.18055e-015 -6.36111e-015 3.18055e-015 2.40854 3.9343 25.302 16.5576 -42.3324 41.9329 -30.8696 -11.2783 31.7872 -16.9577 -4.91453 5.14311 4.41391e-032 1.59028e-015 -1.59028e-015 6.62086e-032 1.59028e-015 -2.38542e-015 8.04139 -1.92156 -3.38901 
33.3819 95.7184 -27.5573 -2.30743 -0.678887 2.15785 -0.0868539 1.71456 0.620968 9.83411 -4.8469 8.35578 -2.59312 13.353 -5.89404 -1.33605 -9.3849 0.0127017 -0.202143 -2.10121 0.201772 -1.11749 -0.988805 -3.19312 -0.551041 8.14983 0.458146 -7.00469 -6.32962 -2.23572 2.55096 -9.1015 3.43949 -0.195661 3.42814 1.24066 -0.203905 3.42807 1.24129 -1.3455 -2.53794 -1.51147 -19.9527 5.18145 -6.20395 -53.9539 41.1823 8.90648 18.4791 7.50167 -27.4287 1.99452 1.26106 -7.53596 -3.53112e-031 -6.36111e-015 -3.18055e-015 -1.76556e-031 -3.18056e-015 -3.18055e-015 1.64809 4.77369 22.4452 19.8519 -41.0063 43.6138 -33.6891 -7.3311 38.6414 -18.8193 -5.4725 7.44494 -9.54166e-015 1.59028e-015 -3.97569e-016 -6.36111e-015 -1.59028e-015 -7.95139e-016 3.717 -2.74089 -2.55864 
33.6635 95.6689 -27.6288 -1.25729 -0.705765 0.336231 -0.236426 1.8013 0.806821 7.57207 -4.03589 7.88146 -0.842336 12.0059 -4.2241 -0.649292 -8.23165 0.0313428 0.467421 -2.97931 -0.340322 -2.8789 -2.01693 -3.04768 0.408146 9.83469 0.370153 -6.60336 -7.61536 -0.695768 2.48074 -8.55883 2.90069 -0.500148 3.59911 1.61973 -0.499504 3.59911 1.62105 0.672741 -3.19323 -1.76012 -21.6381 5.93773 -6.94693 -53.3335 40.2085 6.70143 18.0017 10.302 -25.2278 2.19325 1.90003 -7.24831 -1.32417e-031 3.18055e-015 2.38542e-015 -1.32417e-031 3.18056e-015 2.38542e-015 3.63325 6.08695 20.2397 28.1914 -43.0756 44.7514 -38.6026 -2.13235 53.193 -17.0697 -6.61994 6.2841 3.18055e-015 1.59028e-015 7.95139e-016 3.18055e-015 0 7.95139e-016 1.34668 -2.94894 -1.75888 
33.6179 95.6435 -27.6959 -0.738163 -0.508188 -0.710158 -0.258901 1.89114 0.578339 6.53097 -3.83708 8.28967 0.122447 11.2779 -3.77607 -0.602885 -7.60624 0.0254128 0.611481 -3.43913 -0.381082 -3.57354 -2.73684 -3.27835 0.591573 10.3735 0.669866 -6.30957 -8.29659 0.208322 2.41672 -8.30517 2.75342 -0.537326 3.77956 1.16623 -0.537326 3.77962 1.16623 0.354768 -4.04886 -0.743635 -22.0158 6.92361 -6.62971 -52.2205 38.5914 5.47293 17.6345 10.539 -25.4035 2.75488 2.48532 -6.68634 -6.36111e-015 0 -7.95139e-016 -3.18055e-015 3.18056e-015 -1.59028e-015 9.16513 7.74064 17.7251 35.8855 -47.5693 43.4659 -42.3276 2.9306 71.1379 -18.7215 -7.07231 5.4124 3.18055e-015 3.18055e-015 -3.97569e-016 -3.18055e-015 3.18056e-015 -3.97569e-016 1.24214 -2.85827 -0.890561 
33.3279 95.664 -27.7507 -0.898304 -0.824107 -2.44783 -0.199128 2.04159 0.658255 7.11022 -3.10151 9.66786 -0.452526 11.0012 -3.58692 -0.854479 -7.83621 0.0215013 0.352436 -3.264 -0.119159 -3.2188 -2.79852 -0.965825 0.610283 10.1101 0.449093 -6.37261 -8.06153 -0.144466 2.37087 -8.16471 2.70231 -0.421957 4.0808 1.32492 -0.421956 4.08077 1.32492 0.865614 -4.08326 -0.269378 -23.2821 7.26606 -7.18345 -50.8331 37.0636 4.45446 16.6305 10.0964 -24.8663 4.41067 1.77211 -7.43954 -0 -3.18055e-015 -0 3.18055e-015 -3.18056e-015 -0 13.6918 8.00131 14.3303 37.2547 -48.522 34.5341 -48.4413 3.35153 85.9051 -21.6777 -7.06278 5.26223 -3.18055e-015 7.95139e-016 3.97569e-016 -3.18055e-015 7.95139e-016 7.95139e-016 0.3967 -3.24112 -0.0919333 
33.2697 95.698 -27.7964 -0.434395 -0.969722 -2.82844 -0.279329 2.17508 0.625372 6.70249 -2.64794 8.48909 -0.695879 10.133 -1.76858 -1.45905 -7.63001 0.0153598 0.330366 -2.89501 -0.124119 -3.79489 -3.07916 -1.10158 0.919222 10.5122 0.259751 -6.18363 -8.44963 0.424685 2.29915 -7.95887 2.65016 -0.583146 4.34703 1.26268 -0.583146 4.34704 1.26268 3.18424 -4.22684 -0.449983 -25.1316 7.46929 -7.89007 -50.6042 36.4461 2.6904 14.7103 7.72271 -22.9766 5.67071 1.11589 -7.69607 3.18055e-015 -3.18055e-015 -0 3.18055e-015 3.18056e-015 1.59028e-015 15.3251 8.15878 11.541 31.3133 -42.0895 17.5467 -51.6425 -1.37921 92.9241 -25.8451 -7.6101 5.61906 -3.18055e-015 3.97569e-016 -5.96354e-016 -3.18055e-015 3.97569e-016 -3.97569e-016 -1.92882 -3.32789 0.769439 
33.0943 95.7289 -27.8611 -0.210723 -0.743416 -3.57882 -0.286954 2.23497 0.663718 6.19668 -2.63517 7.72056 -0.161203 9.56467 -0.396531 -1.84481 -7.23474 0.0109646 0.268455 -2.82796 -0.0256936 -4.07334 -3.71721 -0.393143 1.34458 10.839 0.176424 -6.2441 -8.58947 0.324658 2.23526 -7.75434 2.57313 -0.600087 4.46645 1.34012 -0.600086 4.46645 1.34012 4.26794 -4.16646 -0.400962 -26.1832 7.4456 -8.06653 -50.0385 36.8913 0.893942 13.9315 5.73909 -22.1224 5.92141 0.65951 -7.29473 3.18055e-015 -3.18055e-015 -0 -0 -3.18056e-015 -0 17.5795 8.17134 10.0658 27.3277 -33.0809 0.353239 -55.2186 -4.10975 96.1064 -31.2451 -8.3041 5.40455 -3.18055e-015 8.94531e-016 -1.98785e-016 -1.72418e-033 4.96962e-016 1.98785e-016 -3.20187 -3.61285 1.34339 
